<svg width="320" height="88" fill="none" xmlns="http://www.w3.org/2000/svg"><mask id="a" fill="#fff"><path fill-rule="evenodd" clip-rule="evenodd" d="M8 0a8 8 0 00-8 8v72a8 8 0 008 8h304a8 8 0 008-8V8a8 8 0 00-8-8H8zm37.878 35.91L40 24l-5.878 11.91-13.143 1.91 9.51 9.27-2.245 13.09L40 54l11.756 6.18-2.245-13.09 9.51-9.27-13.143-1.91z"/></mask><g filter="url(#filter0_ii_1177_29719)"><path fill-rule="evenodd" clip-rule="evenodd" d="M8 0a8 8 0 00-8 8v72a8 8 0 008 8h304a8 8 0 008-8V8a8 8 0 00-8-8H8zm37.878 35.91L40 24l-5.878 11.91-13.143 1.91 9.51 9.27-2.245 13.09L40 54l11.756 6.18-2.245-13.09 9.51-9.27-13.143-1.91z" fill="#000" fill-opacity=".25"/></g><path d="M40 24l.897-.443L40 21.74l-.897 1.817L40 24zm5.878 11.91l-.897.442.233.472.52.075.144-.99zm-11.756 0l.144.99.52-.076.233-.472-.897-.442zM20.98 37.82l-.144-.99-2.005.291 1.45 1.415.699-.716zm9.51 9.27l.986.17.089-.519-.377-.367-.698.716zm-2.245 13.09l-.985-.169-.343 1.997 1.794-.943-.466-.885zM40 54l.465-.885L40 52.87l-.465.245L40 54zm11.756 6.18l-.466.886 1.794.942-.343-1.997-.985.17zM49.51 47.09l-.698-.716-.377.367.089.518.986-.169zm9.51-9.27l.698.716 1.451-1.415-2.005-.29-.144.989zM1 8a7 7 0 017-7v-2a9 9 0 00-9 9h2zm0 72V8h-2v72h2zm7 7a7 7 0 01-7-7h-2a9 9 0 009 9v-2zm304 0H8v2h304v-2zm7-7a7 7 0 01-7 7v2a9 9 0 009-9h-2zm0-72v72h2V8h-2zm-7-7a7 7 0 017 7h2a9 9 0 00-9-9v2zM8 1h304v-2H8v2zm31.103 23.443l5.878 11.91 1.794-.886-5.878-11.91-1.794.886zm-4.084 11.91l5.878-11.91-1.794-.886-5.878 11.91 1.794.885zm-13.896 2.456l13.143-1.91-.288-1.979-13.143 1.91.288 1.98zm10.064 7.565l-9.51-9.27-1.396 1.432 9.51 9.27 1.396-1.432zM29.23 60.35l2.245-13.09-1.971-.338-2.245 13.09 1.97.338zm10.305-7.234l-11.756 6.18.93 1.77 11.756-6.18-.93-1.77zm12.686 6.18l-11.756-6.18-.93 1.77 11.755 6.18.931-1.77zM48.525 47.26l2.245 13.09 1.971-.338-2.245-13.09-1.971.338zm9.798-10.155l-9.51 9.27 1.396 1.432 9.51-9.27-1.396-1.432zM45.734 36.9l13.143 1.91.288-1.979-13.143-1.91-.288 1.98z" fill="#000" fill-opacity=".1" mask="url(#a)"/><defs><filter id="filter0_ii_1177_29719" x="-13.333" y="-13.333" width="346.667" height="114.667" filterUnits="userSpaceOnUse" color-interpolation-filters="sRGB"><feFlood flood-opacity="0" result="BackgroundImageFix"/><feBlend in="SourceGraphic" in2="BackgroundImageFix" result="shape"/><feColorMatrix in="SourceAlpha" values="0 0 0 0 0 0 0 0 0 0 0 0 0 0 0 0 0 0 127 0" result="hardAlpha"/><feOffset dx="-13.333" dy="13.333"/><feGaussianBlur stdDeviation="6.667"/><feComposite in2="hardAlpha" operator="arithmetic" k2="-1" k3="1"/><feColorMatrix values="0 0 0 0 1 0 0 0 0 1 0 0 0 0 1 0 0 0 0.079 0"/><feBlend in2="shape" result="effect1_innerShadow_1177_29719"/><feColorMatrix in="SourceAlpha" values="0 0 0 0 0 0 0 0 0 0 0 0 0 0 0 0 0 0 127 0" result="hardAlpha"/><feOffset dx="13.333" dy="-13.333"/><feGaussianBlur stdDeviation="6.667"/><feComposite in2="hardAlpha" operator="arithmetic" k2="-1" k3="1"/><feColorMatrix values="0 0 0 0 0.584157 0 0 0 0 0.584157 0 0 0 0 0.584157 0 0 0 0.079 0"/><feBlend in2="effect1_innerShadow_1177_29719" result="effect2_innerShadow_1177_29719"/></filter></defs></svg>