<svg width="87" height="56" fill="none" xmlns="http://www.w3.org/2000/svg"><path d="M17.027 44.375l-3.624 10.788h-2.156L8.545 47.18l-2.75 7.983h-2.17L0 44.375h2.109l2.718 8.2 2.827-8.2H9.53l2.765 8.245 2.796-8.245h1.937zm1.543 2.559h1.953v8.23H18.57v-8.23zm.984-1.357c-.354 0-.65-.108-.89-.323a1.1 1.1 0 01-.36-.832c0-.33.12-.602.36-.817.24-.226.536-.34.89-.34s.651.108.89.324a.99.99 0 01.36.786c0 .34-.12.627-.36.863-.228.226-.525.34-.89.34zm6.926 9.74a8.527 8.527 0 01-2.453-.354c-.78-.236-1.4-.55-1.859-.94l.703-1.557c.448.35.995.637 1.64.863a6.267 6.267 0 001.969.324c.812 0 1.416-.129 1.812-.385.406-.257.61-.596.61-1.018a.946.946 0 00-.345-.755 2.226 2.226 0 00-.843-.477 19.226 19.226 0 00-1.406-.386c-.833-.195-1.51-.39-2.03-.585a3.44 3.44 0 01-1.328-.91c-.365-.42-.547-.986-.547-1.695 0-.596.161-1.135.484-1.618.333-.493.828-.884 1.484-1.171.667-.288 1.479-.432 2.437-.432.666 0 1.323.082 1.968.247.646.164 1.203.4 1.672.709l-.64 1.556a6.362 6.362 0 00-1.5-.632 5.682 5.682 0 00-1.516-.215c-.802 0-1.4.133-1.796.4-.386.267-.578.622-.578 1.064 0 .308.11.56.328.755.229.195.515.35.859.462.344.113.812.242 1.406.385.812.185 1.479.38 2 .586.52.195.963.498 1.327.91.375.41.563.965.563 1.664 0 .596-.167 1.135-.5 1.618-.323.483-.818.868-1.484 1.156-.667.287-1.48.431-2.437.431zm10.933-10.942c.948 0 1.77.154 2.468.463.708.308 1.25.75 1.625 1.325s.562 1.259.562 2.05c0 .78-.187 1.464-.562 2.05-.375.575-.917 1.017-1.625 1.325-.697.308-1.52.462-2.468.462h-2.468v3.113h-2.03V44.375h4.498zm-.094 5.98c.886 0 1.557-.185 2.015-.555.459-.37.688-.899.688-1.587 0-.689-.23-1.218-.688-1.588-.458-.37-1.13-.554-2.015-.554h-2.374v4.284h2.374zm14.978 3.128v1.68h-8.2V44.375h7.981v1.68h-5.951v2.805h5.28v1.649h-5.28v2.974h6.17zm11.98-9.108v10.788h-1.671l-6.03-7.305v7.305h-2.015V44.375h1.672l6.03 7.305v-7.305h2.014zM72.3 55.317c-1.104 0-2.104-.236-3-.709a5.45 5.45 0 01-2.093-1.988c-.5-.842-.75-1.792-.75-2.85 0-1.059.256-2.01.766-2.852a5.338 5.338 0 012.093-1.972c.896-.483 1.896-.725 3-.725.895 0 1.713.154 2.452.463a5 5 0 011.875 1.34l-1.313 1.218c-.791-.843-1.765-1.264-2.92-1.264-.75 0-1.422.164-2.016.493a3.47 3.47 0 00-1.39 1.341c-.333.575-.5 1.228-.5 1.957 0 .73.167 1.382.5 1.957a3.576 3.576 0 001.39 1.357c.594.318 1.265.477 2.015.477 1.156 0 2.13-.426 2.921-1.279l1.313 1.233a4.975 4.975 0 01-1.89 1.34c-.74.31-1.558.463-2.453.463zm14.367-1.834v1.68h-8.201V44.375h7.982v1.68h-5.952v2.805h5.28v1.649h-5.28v2.974h6.17zM45.893 27.49V14.91c0-3.288-.947-7.477-6.122-7.477h-2.29c1.488 1.382 1.881 2.895 1.91 3.768.044 1.192 0 4.77 0 4.77s-.13 7.332 0 9.775c.132 2.502.831 4.786 1.925 5.979 1.356 1.483 3.061 2.138 4.563 2.429 1.953.363 3.542.087 3.542.087-3.294-.146-3.528-6.182-3.528-6.75zM63.358 7.418h-2.29c-5.174 0-6.122 4.189-6.122 7.476v12.582c0 .568-.248 6.604-3.542 6.75 0 0 1.603.276 3.542-.088 1.502-.29 3.222-.96 4.563-2.429 1.093-1.193 1.793-3.491 1.924-5.978.132-2.444 0-9.775 0-9.775s-.044-3.578 0-4.77c.044-.859.438-2.372 1.925-3.768zM32.365 29.701c-.67-1.352-1.137-3.621-1.137-6.152V6.807c.015-3.39-2.74-6.124-6.123-6.124H21.87s1.779 1.716 1.779 4.262c0 0-.073 10.633 0 14.182.043 2.095.262 6.473.801 8.335.54 1.861 1.648 3.883 3.251 4.93 1.137.757 2.245 1.368 3.543 1.702a8.655 8.655 0 001.676.248c2.085.087 4.417-.277 5.613-.597 0 0-4.447-.582-6.167-4.043z" fill="#919090"/></svg>